<svg xmlns="http://www.w3.org/2000/svg" viewBox="0 0 512 512"><g fill="none" stroke="#ff6a2c" stroke-width="28" stroke-linecap="round"><path d="M256,180 Q158.4,158.4 51,330"/><path d="M256,180 Q177.6,118 119.3,351.7"/><path d="M256,180 Q212.4,90 187.7,373.3"/><path d="M256,180 Q256,80 256,395"/><path d="M256,180 Q299.6,90 324.3,373.3"/><path d="M256,180 Q334.4,118 392.7,351.7"/><path d="M256,180 Q353.6,158.4 461,330"/></g><g fill="#e8340f"><circle cx="51" cy="330" r="24"/><circle cx="119.3" cy="351.7" r="24"/><circle cx="187.7" cy="373.3" r="24"/><circle cx="256" cy="395" r="24"/><circle cx="324.3" cy="373.3" r="24"/><circle cx="392.7" cy="351.7" r="24"/><circle cx="461" cy="330" r="24"/></g><circle cx="256" cy="180" r="40" fill="#ffcf6b"/></svg>