<svg xmlns="http://www.w3.org/2000/svg" viewBox="0 0 512 512"><rect x="0" y="0" width="512" height="512" fill="#000000"/><g fill="none" stroke="#ff6a2c" stroke-linecap="round"><path d="M256,100 Q154.5,68.6 50.1,360.1" stroke-width="24.6"/><path d="M256,100 Q164.9,38.2 115,414.9" stroke-width="28.3"/><path d="M256,100 Q183.3,-7.1 163.9,495" stroke-width="24.4"/><path d="M256,100 Q240.4,-7.1 249,423.4" stroke-width="32.1"/><path d="M256,100 Q306.4,-14.6 325.6,459.4" stroke-width="32.2"/><path d="M256,100 Q318.3,33.9 373.7,350.4" stroke-width="23.2"/><path d="M256,100 Q369.2,49.3 435.9,438.7" stroke-width="32.5"/></g><g fill="#e8340f"><circle cx="50.1" cy="360.1" r="26.9"/><circle cx="115" cy="414.9" r="22.7"/><circle cx="163.9" cy="495" r="21.4"/><circle cx="249" cy="423.4" r="25"/><circle cx="325.6" cy="459.4" r="27.4"/><circle cx="373.7" cy="350.4" r="20.8"/><circle cx="435.9" cy="438.7" r="26.3"/></g><path d="M268.6,-44.4 L288.3,37.9 L367.1,6.8 L322.8,79 L400.4,112.6 L318.1,132.3 L349.2,211.1 L277,166.8 L243.4,244.4 L223.7,162.1 L144.9,193.2 L189.2,121 L111.6,87.4 L193.9,67.7 L162.8,-11.1 L235,33.2 Z" fill="#ffcf6b"/><circle cx="256" cy="100" r="22" fill="#fff3d6"/></svg>